{
  "asset": {
    "version": "2.0",
    "generator": "THREE.GLTFExporter"
  },
  "scenes": [
    {
      "name": "AuxScene",
      "nodes": [
        6
      ]
    }
  ],
  "scene": 0,
  "nodes": [
    {
      "mesh": 0
    },
    {
      "children": [
        0
      ]
    },
    {
      "children": [
        1
      ]
    },
    {
      "mesh": 1
    },
    {
      "children": [
        3
      ]
    },
    {
      "matrix": [
        1,
        0,
        0,
        0,
        0,
        1,
        0,
        0,
        0,
        0,
        1,
        0,
        0,
        0,
        -0.07544290230698364,
        1
      ],
      "children": [
        4
      ]
    },
    {
      "matrix": [
        0.0025269408157569634,
        0,
        0,
        0,
        0,
        -0.0025269408157569634,
        0,
        0,
        0,
        0,
        0.0025269408157569634,
        0,
        -3.604681073677308,
        3.4113764675944607,
        0,
        1
      ],
      "extras": {
        "svgImageTarget": {
          "width": 2048,
          "height": 1939,
          "depth": 1,
          "scissor": {
            "x": 0,
            "y": 0,
            "z": 2048,
            "w": 1939
          },
          "scissorTest": false,
          "viewport": {
            "x": 0,
            "y": 0,
            "z": 2048,
            "w": 1939
          },
          "texture": {
            "metadata": {
              "version": 4.5,
              "type": "Texture",
              "generator": "Texture.toJSON"
            },
            "uuid": "F862C64E-3C42-47A4-A69C-54D9EF43BC8A",
            "name": "",
            "mapping": 300,
            "repeat": [
              1,
              1
            ],
            "offset": [
              0,
              0
            ],
            "center": [
              0,
              0
            ],
            "rotation": 0,
            "wrap": [
              1001,
              1001
            ],
            "format": 1023,
            "type": 1009,
            "encoding": 3000,
            "minFilter": 1003,
            "magFilter": 1006,
            "anisotropy": 1,
            "flipY": true,
            "premultiplyAlpha": false,
            "unpackAlignment": 4,
            "image": "B52C11E2-69F0-49AC-AF79-B4B6FEB61465"
          },
          "depthBuffer": false,
          "stencilBuffer": false,
          "depthTexture": null,
          "_listeners": {
            "dispose": [
              null
            ]
          }
        }
      },
      "children": [
        2,
        5
      ]
    }
  ],
  "bufferViews": [
    {
      "buffer": 0,
      "byteOffset": 0,
      "byteLength": 228816,
      "target": 34962,
      "byteStride": 12
    },
    {
      "buffer": 0,
      "byteOffset": 228816,
      "byteLength": 152544,
      "target": 34962,
      "byteStride": 8
    },
    {
      "buffer": 0,
      "byteOffset": 381360,
      "byteLength": 228816,
      "target": 34962,
      "byteStride": 12
    },
    {
      "buffer": 0,
      "byteOffset": 610176,
      "byteLength": 196416,
      "target": 34962,
      "byteStride": 12
    },
    {
      "buffer": 0,
      "byteOffset": 806592,
      "byteLength": 130944,
      "target": 34962,
      "byteStride": 8
    },
    {
      "buffer": 0,
      "byteOffset": 937536,
      "byteLength": 196416,
      "target": 34962,
      "byteStride": 12
    }
  ],
  "buffers": [
    {
      "byteLength": 1133952,
      "uri": "data:application/octet-stream;base64,"
    }
  ],
  "accessors": [
    {
      "bufferView": 0,
      "componentType": 5126,
      "count": 19068,
      "max": [
        2853,
        2575,
        480.6737060546875
      ],
      "min": [
        0,
        0.0028414931148290634,
        0
      ],
      "type": "VEC3"
    },
    {
      "bufferView": 1,
      "componentType": 5126,
      "count": 19068,
      "max": [
        0.9996532201766968,
        0.9998148083686829
      ],
      "min": [
        0.00036811313475482166,
        0.046465106308460236
      ],
      "type": "VEC2"
    },
    {
      "bufferView": 2,
      "componentType": 5126,
      "count": 19068,
      "max": [
        0.8977514505386353,
        1,
        1
      ],
      "min": [
        -0.9628710746765137,
        -1,
        -1
      ],
      "type": "VEC3"
    },
    {
      "bufferView": 3,
      "componentType": 5126,
      "count": 16368,
      "max": [
        2724,
        2700.002197265625,
        298.5542907714844
      ],
      "min": [
        568,
        1676.9989013671875,
        0
      ],
      "type": "VEC3"
    },
    {
      "bufferView": 4,
      "componentType": 5126,
      "count": 16368,
      "max": [
        0.9544699788093567,
        0.3789350390434265
      ],
      "min": [
        0.19931446015834808,
        0.0001851303968578577
      ],
      "type": "VEC2"
    },
    {
      "bufferView": 5,
      "componentType": 5126,
      "count": 16368,
      "max": [
        0.9383343458175659,
        1,
        1
      ],
      "min": [
        -0.9137269854545593,
        -0.9995006918907166,
        -1
      ],
      "type": "VEC3"
    }
  ],
  "materials": [
    {
      "pbrMetallicRoughness": {
        "baseColorFactor": [
          0.6,
          0,
          0,
          1
        ],
        "metallicFactor": 0,
        "roughnessFactor": 1
      }
    },
    {
      "pbrMetallicRoughness": {
        "baseColorFactor": [
          0,
          0,
          0,
          1
        ],
        "metallicFactor": 0,
        "roughnessFactor": 1
      }
    }
  ],
  "meshes": [
    {
      "primitives": [
        {
          "mode": 4,
          "attributes": {
            "POSITION": 0,
            "TEXCOORD_0": 1,
            "NORMAL": 2
          },
          "extras": {
            "isUVNormalized": true
          },
          "material": 0
        }
      ]
    },
    {
      "primitives": [
        {
          "mode": 4,
          "attributes": {
            "POSITION": 3,
            "TEXCOORD_0": 4,
            "NORMAL": 5
          },
          "extras": {
            "isUVNormalized": true
          },
          "material": 1
        }
      ]
    }
  ]
}